<svg width="135" height="120" viewBox="0 0 135 120" fill="none" xmlns="http://www.w3.org/2000/svg">
<path d="M72.8125 73.2188C73.5312 73.4375 74.3281 73.5469 75.2031 73.5469C76.1094 73.5469 77.125 73.3125 78.25 72.8438C78.8438 73.25 79.3281 73.7969 79.7031 74.4844C80.0781 75.1406 80.2656 75.7188 80.2656 76.2188C80.2656 76.7188 80.0625 77.4375 79.6562 78.375C79.2812 79.3125 78.7344 80.2656 78.0156 81.2344C77.2969 82.1719 76.4219 83.0781 75.3906 83.9531C74.3906 84.8281 73.2812 85.6094 72.0625 86.2969C67.5 88.8906 62.5625 89.2812 57.25 87.4688C52.8438 86 49.7031 82.9688 47.8281 78.375C46.8906 76 46.4219 73.4531 46.4219 70.7344C46.4219 67.9844 46.8281 65.5781 47.6406 63.5156C48.4844 61.4531 49.5781 59.4375 50.9219 57.4688C52.2656 55.4688 53.7969 53.5312 55.5156 51.6562C57.2344 49.75 58.9844 47.8906 60.7656 46.0781C62.5469 44.2656 64.2969 42.5 66.0156 40.7812C67.7344 39.0625 69.2656 37.375 70.6094 35.7188C73.6094 32.0625 75.1094 28.9531 75.1094 26.3906C75.1094 23.1406 73.6719 21.0625 70.7969 20.1562C69.9531 19.9062 68.6719 19.7812 66.9531 19.7812C65.2344 19.7812 63.0781 20.375 60.4844 21.5625C57.9219 22.75 55.3594 24.375 52.7969 26.4375C50.2656 28.5 47.7812 30.9219 45.3438 33.7031C42.9062 36.4844 40.5938 39.4844 38.4062 42.7031C36.25 45.9219 34.2812 49.2656 32.5 52.7344C27.25 62.9844 24.625 71.9375 24.625 79.5938C24.625 80.4688 24.6562 81.3125 24.7188 82.125C23.8125 83.1562 22.2344 84.2188 19.9844 85.3125C15.8281 87.2812 13.2031 88.2656 12.1094 88.2656C11.0469 88.2656 10.1406 88.0469 9.39062 87.6094C8.64062 87.2031 7.95312 86.5781 7.32812 85.7344C5.85938 83.8281 5.125 81.4062 5.125 78.4688C5.125 75.5 5.59375 72.4219 6.53125 69.2344C7.5 66.0469 8.70312 62.7812 10.1406 59.4375C11.5781 56.0938 13.125 52.75 14.7812 49.4062C16.4375 46.0312 17.9844 42.7812 19.4219 39.6562C22.7656 32.375 24.4375 27 24.4375 23.5312C24.4375 20.5 24.2344 18.4688 23.8281 17.4375C23.0469 15.5625 21.9219 14.5938 20.4531 14.5312C20.5469 12.4375 21.6719 11.3906 23.8281 11.3906C25.9844 11.3906 27.8125 12.1875 29.3125 13.7812C31.5938 16.1562 32.7344 19.7812 32.7344 24.6562C32.7344 30.3125 31.25 36.5625 28.2812 43.4062C35.6875 34.0625 42.4219 27.0625 48.4844 22.4062C55.7969 16.7812 62.7188 13.9688 69.25 13.9688C75.5 13.9688 79.5625 16.4375 81.4375 21.375C82.0625 23.0312 82.375 25.0156 82.375 27.3281C82.375 29.6094 82.0469 31.8125 81.3906 33.9375C80.7656 36.0625 79.9531 38.1406 78.9531 40.1719C77.9844 42.1719 76.9375 44.1719 75.8125 46.1719C74.6875 48.1719 73.6406 50.2656 72.6719 52.4531C70.3906 57.4844 69.25 62.5156 69.25 67.5469C69.25 70.5469 70.4375 72.4375 72.8125 73.2188Z" fill="white"/>
<path d="M69.1094 85.1719C65.9844 85.9531 63.7969 86.3438 62.5469 86.3438C61.3281 86.3438 60.3281 86.1562 59.5469 85.7812C58.7656 85.375 58.0625 84.8438 57.4375 84.1875C56.0625 82.75 55.375 81.3125 55.375 79.875C55.375 78.4062 55.6719 77.1562 56.2656 76.125C56.8594 75.0938 57.6406 74.1875 58.6094 73.4062C60.7656 71.7188 62.8438 70.875 64.8438 70.875C66.8438 70.875 68.5312 70.9688 69.9062 71.1562C73.875 68.4375 77.9219 63.625 82.0469 56.7188C83.8281 53.6875 85.5781 50.5156 87.2969 47.2031C89.0156 43.8594 90.7656 40.5781 92.5469 37.3594C94.3594 34.1094 96.2344 31.0312 98.1719 28.125C100.109 25.1875 102.203 22.5938 104.453 20.3438C109.359 15.5 114.734 13.0781 120.578 13.0781C125.203 13.0781 128.734 14.4062 131.172 17.0625C133.328 19.4375 134.406 22.5469 134.406 26.3906C134.406 32.4844 132.047 38.1875 127.328 43.5C124.422 46.7188 121.359 48.9844 118.141 50.2969C116.484 50.9531 114.953 51.2812 113.547 51.2812C112.141 51.2812 110.984 50.9375 110.078 50.25C108.047 48.6562 107.031 46.4531 107.031 43.6406C107.031 42.7969 107.172 42.0469 107.453 41.3906C108.172 41.4844 108.938 41.5312 109.75 41.5312C110.594 41.5312 111.656 41.4062 112.938 41.1562C114.219 40.9062 115.609 40.4219 117.109 39.7031C118.641 38.9844 120.062 38.0938 121.375 37.0312C122.688 35.9688 123.828 34.7969 124.797 33.5156C126.859 30.7969 127.891 28.0781 127.891 25.3594C127.891 22.1406 126.641 19.9062 124.141 18.6562C123.297 18.2188 122.047 18 120.391 18C118.734 18 117.016 18.5156 115.234 19.5469C113.453 20.5781 111.812 21.9844 110.312 23.7656C108.844 25.5156 107.484 27.5781 106.234 29.9531C105.016 32.3281 103.859 34.8594 102.766 37.5469C101.703 40.2031 100.672 42.9531 99.6719 45.7969C98.7031 48.6406 97.7344 51.4219 96.7656 54.1406C95.8281 56.8594 94.8594 59.4375 93.8594 61.875C92.8906 64.3125 91.8594 66.4688 90.7656 68.3438C88.3281 72.4688 85.6875 74.7031 82.8438 75.0469C91.5 77.9219 99.5156 79.875 106.891 80.9062C108.453 81.125 109.812 81.2344 110.969 81.2344C112.125 81.2344 113.25 81.125 114.344 80.9062C115.438 80.6875 116.453 80.3438 117.391 79.875C119.516 78.8438 120.984 77.4531 121.797 75.7031C123.984 75.8594 125.078 76.7188 125.078 78.2812C125.078 79.8125 124.844 81.375 124.375 82.9688C123.906 84.5312 123.25 86.0312 122.406 87.4688C121.594 88.9062 120.609 90.25 119.453 91.5C118.328 92.75 117.078 93.8281 115.703 94.7344C112.828 96.6719 109.906 97.6406 106.938 97.6406C104 97.6406 101.359 97.3594 99.0156 96.7969C96.7031 96.2344 94.5156 95.5156 92.4531 94.6406C90.4219 93.7969 88.4688 92.8594 86.5938 91.8281C84.7188 90.7969 82.8594 89.8125 81.0156 88.875C76.6094 86.7188 72.6406 85.4844 69.1094 85.1719Z" fill="white"/>
</svg>
